<?xml version="1.0" standalone="no"?>
<!DOCTYPE svg PUBLIC "-//W3C//DTD SVG 1.1//EN" "http://www.w3.org/Graphics/SVG/1.1/DTD/svg11.dtd" >
<svg xmlns="http://www.w3.org/2000/svg">
<metadata></metadata>
<defs>
<font id="ll_recordregular" horiz-adv-x="1638" >
<font-face units-per-em="2048" ascent="1638" descent="-410" />
<missing-glyph horiz-adv-x="1024" />
<glyph horiz-adv-x="2048" />
<glyph horiz-adv-x="2048" />
<glyph unicode="&#xd;" horiz-adv-x="1024" />
<glyph unicode=" "  horiz-adv-x="1024" />
<glyph unicode="&#x09;" horiz-adv-x="1024" />
<glyph unicode="&#xa0;" horiz-adv-x="1024" />
<glyph unicode="." horiz-adv-x="2727" />
<glyph unicode="0" horiz-adv-x="1110" d="M70 453v467q0 201 142 340t343 139t343 -139t142 -340v-467q0 -201 -142 -343.5t-343 -142.5t-343 142.5t-142 343.5zM399 449q0 -68 46.5 -113t113.5 -45q70 0 113 44t43 114v462q0 68 -45 116t-113 48t-113 -48t-45 -116v-462z" />
<glyph unicode="1" horiz-adv-x="657" d="M33 1042v324h522v-1366h-336v1042h-186z" />
<glyph unicode="2" horiz-adv-x="1161" d="M33 1145q96 117 235.5 185.5t286.5 68.5q211 0 349 -135.5t138 -345.5q0 -133 -77 -244q-62 -89 -197 -191q-61 -45 -207 -153h533v-330h-1045v272q143 117 522 459q66 57 86 90q31 47 31 115q0 59 -49 102t-109 43q-156 0 -307 -188q-117 147 -190 252z" />
<glyph unicode="3" horiz-adv-x="1181" d="M55 205q129 121 209 207q133 -143 283 -144q104 0 170.5 58.5t66.5 160.5q0 82 -58 142.5t-140 60.5q-88 0 -152 -63q-66 68 -160 161q160 150 273 271h-443v307h914v-178l-287 -287q170 -4 277.5 -125t107.5 -293q0 -229 -156.5 -372.5t-388.5 -143.5q-324 0 -516 238z " />
<glyph unicode="4" horiz-adv-x="1212" d="M68 317v285q39 47 297 389l282 375h314v-743h182v-306h-182v-317h-316v317h-577zM422 623h223v305q-98 -129 -223 -305z" />
<glyph unicode="5" horiz-adv-x="1167" d="M70 356q156 41 307 99q10 -80 64.5 -129.5t133.5 -49.5q78 0 134.5 54.5t56.5 132.5q0 82 -53.5 138t-134.5 56q-111 0 -428 -10v719h872v-307h-580v-131q82 8 174 8q215 0 349.5 -125t134.5 -340q0 -209 -154.5 -356.5t-365.5 -147.5q-182 0 -320.5 106.5t-189.5 282.5z " />
<glyph unicode="6" horiz-adv-x="1196" d="M68 479q-1 164 118 379q66 119 205 326q123 182 187 260q104 -63 266 -166q-96 -131 -234 -324q29 8 58 9q207 0 333.5 -133.5t126.5 -342.5q0 -219 -154.5 -369.5t-375.5 -150.5q-219 0 -374.5 147.5t-155.5 364.5zM383 473q0 -90 62.5 -151.5t152.5 -61.5 q88 0 151.5 62.5t63.5 150.5q0 90 -62.5 153.5t-152.5 63.5t-152.5 -63.5t-62.5 -153.5z" />
<glyph unicode="7" horiz-adv-x="1118" d="M68 838v528h1075l-549 -1366h-336l434 1059h-309v-221h-315z" />
<glyph unicode="8" horiz-adv-x="1153" d="M47 416q0 113 51 207q55 104 154 143q-125 70 -125 254q0 178 143 287q131 100 314 100q182 0 309 -98q137 -109 137 -285q0 -184 -127 -260q96 -45 149.5 -140.5t53.5 -205.5q0 -215 -162 -344q-150 -117 -371 -117q-223 0 -368 117q-158 125 -158 342zM365 430 q0 -82 67 -133q59 -47 146 -47q86 0 148 48t62 132q0 90 -59 139t-151 49q-90 0 -151.5 -50t-61.5 -138zM438 1006q0 -63 38 -107.5t102 -44.5q63 0 102 43.5t39 106.5t-38 105t-101 42q-66 0 -104 -40t-38 -105z" />
<glyph unicode="9" horiz-adv-x="1196" d="M68 879q0 219 154.5 369.5t375.5 150.5q219 0 374.5 -147.5t155.5 -364.5q1 -164 -118 -379q-66 -119 -199 -318q-125 -184 -180 -253q-104 66 -266 165q127 154 221 310q-29 -8 -58 -9q-207 0 -333.5 133.5t-126.5 342.5zM383 893q0 -90 62.5 -153.5t152.5 -63.5 t152.5 63.5t62.5 153.5t-62.5 151.5t-152.5 61.5q-88 0 -151.5 -62.5t-63.5 -150.5z" />
<glyph unicode="@" horiz-adv-x="1507" d="M141 119v991q0 49 34 84t83 35h993q49 0 84 -35t35 -84v-991q0 -49 -35 -84t-84 -35h-993q-49 0 -83 35t-34 84zM199 119q0 -59 59 -60h993q60 1 60 60v991q0 59 -60 59h-993q-59 0 -59 -59v-991zM416 348v537q0 41 41 41h78q41 0 40 -41v-537q0 -41 -40 -41h-78 q-41 0 -41 41zM672 348v537q0 41 39 41h77q41 0 41 -41v-537q0 -41 -41 -41h-77q-39 0 -39 41zM922 348v537q0 41 41 41h77q39 0 39 -41v-537q0 -41 -39 -41h-77q-41 0 -41 41z" />
<glyph unicode="A" horiz-adv-x="1550" d="M162 119v991q0 49 34.5 84t84.5 35h991q49 0 84 -35t35 -84v-991q0 -49 -35 -84t-84 -35h-991q-49 0 -84 35t-35 84zM221 119q0 -59 60 -60h991q59 1 59 60v991q0 59 -59 59h-991q-59 0 -60 -59v-991zM350 610q0 23 17 33l319 184q6 4 14 4q43 0 43 -36v-369 q0 -37 -43 -37q-10 0 -16 4l-317 182q-16 10 -17 35zM774 610q0 23 17 33l319 184q6 4 14 4q43 0 43 -36v-369q0 -37 -43 -37q-10 0 -16 4l-317 182q-16 10 -17 35z" />
<glyph unicode="B" d="M172 119v991q0 49 34 84t83 35h993q49 0 84 -35t35 -84v-991q0 -49 -35 -84t-84 -35h-993q-49 0 -83 35t-34 84zM229 119q0 -59 60 -60h993q59 1 59 60v991q0 59 -59 59h-993q-59 0 -60 -59v-991zM395 426v369q0 36 39 36h2q10 0 17 -4l317 -184q18 -8 18 -33t-18 -35 l-315 -182q-6 -4 -17 -4q-43 0 -43 37zM819 426v369q0 36 39 36h2q10 0 17 -4l317 -184q18 -8 18 -33t-18 -35l-315 -182q-6 -4 -17 -4q-43 0 -43 37z" />
<glyph unicode="C" d="M225 119v991q0 49 35 84t84 35h991q49 0 84 -35t35 -84v-991q0 -49 -35 -84t-84 -35h-991q-49 0 -84 35t-35 84zM285 119q0 -59 59 -60h991q60 1 60 60v991q0 59 -60 59h-991q-59 0 -59 -59v-991zM618 362v484q0 20 17.5 35.5t38.5 15.5q12 0 20 -6l420 -242 q23 -12 23 -45t-23 -45l-418 -242q-6 -4 -20 -4q-57 0 -58 49z" />
<glyph unicode="D" horiz-adv-x="1466" d="M182 139v953q0 57 46 97t104 40q31 0 59 -17l826 -475q65 -36 65 -124q0 -91 -65 -126q-317 -170 -412 -223q-274 -154 -410 -248q-25 -16 -61 -16q-57 0 -104.5 41t-47.5 98zM262 139q0 -23 23.5 -41t48.5 -18q12 0 22 6l820 473q25 14 24 53q1 40 -24 54l-826 477 q-6 4 -18 4q-23 0 -46.5 -16.5t-23.5 -38.5v-953z" />
<glyph unicode="E" horiz-adv-x="2568" d="M213 147v934q0 59 49 103.5t109 44.5q37 0 65 -17l809 -467q25 -14 43 -40v376q0 59 49 103.5t109 44.5q37 0 65 -17l809 -467q70 -41 70 -133t-70 -133l-802 -461q-33 -18 -68 -18q-63 0 -112.5 43t-49.5 104v373q-18 -27 -43 -41l-803 -461q-33 -18 -67 -18 q-63 0 -112.5 43t-49.5 104zM317 147q0 -16 19.5 -29.5t38.5 -13.5q8 1 14 5q344 184 617 333q205 113 204 170q0 59 -204 172l-621 338q-6 2 -12 2q-18 0 -37 -13t-19 -30v-934zM1393 147q0 -16 19.5 -29.5t37.5 -13.5q8 1 14 5q344 184 617 333q205 113 205 170 q0 59 -207 172l-619 338q-6 2 -12 2q-18 0 -36.5 -13t-18.5 -30v-934z" />
<glyph unicode="F" horiz-adv-x="2598" d="M272 745l809 467q29 16 66 17q59 0 108.5 -44t49.5 -104v-376q18 27 43 40l809 467q29 16 65 17q59 0 108.5 -44t49.5 -104v-934q0 -61 -49.5 -104t-112.5 -43q-35 0 -68 18l-802 461q-23 12 -43 41v-373q0 -61 -49.5 -104t-112.5 -43q-33 0 -66 18l-805 461 q-69 38 -69 130q0 95 69 136zM307 612q0 -57 205 -170l616 -333q6 -4 17 -5q16 0 35.5 13.5t19.5 29.5v934q0 16 -17.5 29.5t-35.5 13.5q-8 0 -12 -2l-621 -338q-207 -113 -207 -172zM1382 612q0 -57 205 -170l617 -333q6 -4 16 -5q16 0 35.5 13.5t19.5 29.5v934 q0 16 -18.5 29.5t-34.5 13.5q-8 0 -12 -2l-621 -338q-207 -113 -207 -172z" />
<glyph unicode="G" horiz-adv-x="2105" d="M205 328v583q0 41 31.5 70t72.5 29q23 0 43 -13l504 -290q10 -6 18 -15v219q0 39 33 69t72 30q25 0 45 -13l504 -290q47 -27 47 -89q0 -61 -47 -88l-502 -288q-20 -12 -45 -13q-41 0 -74 29t-33 70v217q-8 -8 -18 -15l-502 -288q-20 -12 -43 -13q-41 0 -73.5 29t-32.5 70 zM281 328q0 -8 14 -16.5t22 -4.5l502 291q8 4 8 20q0 17 -8 21l-506 293q-6 4 -19 -4t-13 -17v-583zM952 328q0 -10 13.5 -17.5t23.5 -3.5l500 291q10 4 10 20q0 17 -8 21l-506 293q-6 4 -19.5 -4t-13.5 -17v-583zM1640 113v1003q0 47 33 80t80 33h27q47 0 79.5 -33 t32.5 -80v-1003q0 -47 -32.5 -80t-79.5 -33h-27q-47 0 -80 33t-33 80zM1716 113q0 -37 37 -37h27q37 0 37 37v1003q0 37 -37 37h-27q-37 0 -37 -37v-1003z" />
<glyph unicode="H" horiz-adv-x="2045" d="M188 113v1003q0 47 34 80t81 33h27q47 0 79.5 -33t32.5 -80v-1003q0 -47 -32.5 -80t-79.5 -33h-27q-47 0 -81 33t-34 80zM266 113q0 -37 37 -37h27q35 0 35 37v1003q0 37 -35 37h-27q-37 0 -37 -37v-1003zM506 618q0 61 47 89l506 290q20 12 43 13q41 0 72.5 -29 t31.5 -70v-219q8 8 19 15l506 290q20 12 43 13q39 0 71.5 -30t32.5 -69v-583q0 -41 -33 -70t-73 -29q-25 0 -46 13l-501 288q-10 6 -19 15v-217q0 -41 -32.5 -70t-73.5 -29q-25 0 -45 13l-502 288q-47 27 -47 88zM584 618q0 -16 8 -20l502 -291q3 -1 6 -1q7 0 16 6 q14 8 14 16v583q0 9 -13 17q-9 6 -15 5q-3 0 -6 -1l-504 -293q-8 -4 -8 -21zM1255 618q0 -16 9 -20l501 -291q3 -1 6 -1q7 0 15 6q14 8 14 16v583q0 9 -12 17q-8 6 -15 5q-3 0 -6 -1l-503 -293q-8 -4 -9 -21z" />
<glyph unicode="I" d="M170 129v971q0 53 38 91t91 38h971q53 0 91 -38t38 -91v-971q0 -53 -38 -91t-91 -38h-971q-53 0 -91 38t-38 91zM256 129q0 -43 43 -43h971q43 0 43 43v971q0 43 -43 43h-971q-43 0 -43 -43v-971z" />
<glyph unicode="J" horiz-adv-x="1466" d="M113 614q0 256 179 435.5t435 179.5t435 -179.5t179 -435.5t-179 -435t-435 -179t-435 179t-179 435zM193 614q0 -223 155.5 -378.5t378.5 -155.5t379 155.5t156 378.5t-156 379t-379 156t-378.5 -155.5t-155.5 -379.5z" />
<glyph unicode="K" horiz-adv-x="1126" d="M117 113v1003q0 47 32.5 80t79.5 33h146q47 0 79.5 -33t32.5 -80v-1003q0 -47 -32.5 -80t-79.5 -33h-146q-47 0 -79.5 33t-32.5 80zM193 113q0 -37 36 -37h146q37 0 37 37v1003q0 37 -37 37h-146q-37 0 -36 -37v-1003zM590 113v1003q0 47 33.5 80t81.5 33h145 q47 0 80 -33t33 -80v-1003q0 -47 -33 -80t-80 -33h-145q-47 0 -81 33t-34 80zM668 113q0 -37 37 -37h145q35 0 35 37v1003q0 37 -35 37h-145q-37 0 -37 -37v-1003z" />
<glyph unicode="L" horiz-adv-x="1751" d="M170 113v1003q0 47 33 80t80 33h145q47 0 80 -33t33 -80v-1003q0 -47 -33 -80t-80 -33h-145q-47 0 -80 33t-33 80zM246 113q0 -37 37 -37h145q35 0 35 37v1003q0 37 -35 37h-145q-37 0 -37 -37v-1003zM643 113v1003q0 47 33 80t80 33h145q47 0 80 -33t33 -80v-1003 q0 -47 -33 -80t-80 -33h-145q-47 0 -80 33t-33 80zM719 113q0 -37 37 -37h145q37 0 37 37v1003q0 37 -37 37h-145q-37 0 -37 -37v-1003zM1112 113v1003q0 47 33 80t80 33h145q47 0 80 -33t33 -80v-1003q0 -47 -33 -80t-80 -33h-145q-47 0 -80 33t-33 80zM1188 113 q0 -37 37 -37h145q37 0 37 37v1003q0 37 -37 37h-145q-37 0 -37 -37v-1003z" />
<glyph unicode="M" horiz-adv-x="1595" d="M154 358v512q0 39 39 60q33 18 73 18h146q39 0 75.5 -20.5t36.5 -57.5v-512q0 -37 -36.5 -57t-75.5 -20h-146q-41 0 -73 18q-39 20 -39 59zM229 365q14 -6 37 -7h146q20 0 34 7l3 499q-16 6 -37 6h-146q-23 0 -37 -6v-499zM627 213v803q0 43 34.5 70.5t77.5 27.5h146 q43 0 77.5 -27.5t34.5 -70.5v-803q0 -43 -34.5 -70.5t-77.5 -27.5h-146q-43 0 -77.5 27.5t-34.5 70.5zM702 213q0 -20 37 -20h146q37 0 37 20v803q0 20 -37 20h-146q-37 0 -37 -20v-803zM1096 113v1003q0 47 32.5 80t79.5 33h146q47 0 79.5 -33t32.5 -80v-1003 q0 -47 -32.5 -80t-79.5 -33h-146q-47 0 -79.5 33t-32.5 80zM1171 113q0 -37 37 -37h146q37 0 37 37v1003q0 37 -37 37h-146q-37 0 -37 -37v-1003z" />
<glyph unicode="N" horiz-adv-x="1581" d="M166 119v321q0 47 32.5 80t80.5 33h145q45 0 78 -34t33 -79v-321q0 -47 -32 -80t-79 -33h-145q-47 0 -80 33t-33 80zM242 119q0 -37 37 -37h145q35 0 35 37v321q0 35 -35 35h-145q-37 0 -37 -35v-321zM635 86v637q0 41 35 63.5t78 22.5h145q43 0 77 -22.5t34 -63.5v-637 q0 -39 -35 -62.5t-76 -23.5h-145q-43 0 -78 22.5t-35 63.5zM711 88q8 -12 37 -12h145q29 0 35 10l2 635q-8 12 -37 12h-145q-31 0 -37 -10v-635zM1102 119v997q0 47 32.5 80t79.5 33h144q47 0 79.5 -33t32.5 -80v-997q0 -47 -32.5 -80t-79.5 -33h-144q-47 0 -79.5 33 t-32.5 80zM1178 119q0 -35 36 -35h144q37 0 37 35v997q0 37 -37 37h-144q-37 0 -36 -37v-997z" />
<glyph unicode="O" horiz-adv-x="1521" d="M139 119v991q0 49 35 84t84 35h993q49 0 83 -35t34 -84v-991q0 -49 -34 -84t-83 -35h-993q-49 0 -84 35t-35 84zM199 119q0 -59 59 -60h993q60 1 60 60v991q0 59 -60 59h-993q-59 0 -59 -59v-991zM426 473v275q0 20 39 20h78q41 0 41 -20v-275q0 -20 -41 -20h-78 q-39 0 -39 20zM680 395v430q0 33 39 33h78q41 0 41 -33v-430q0 -31 -41 -30h-78q-39 0 -39 30zM930 342v537q0 41 41 41h78q39 0 38 -41v-537q0 -41 -38 -41h-78q-41 0 -41 41z" />
<glyph unicode="P" horiz-adv-x="1550" d="M156 92v1045q0 39 26.5 65.5t65.5 26.5h1042q39 0 66.5 -26.5t27.5 -65.5v-1045q0 -39 -27.5 -65.5t-66.5 -26.5h-1042q-39 0 -65.5 26.5t-26.5 65.5zM473 614q0 -123 87 -210t210 -87t209 87t86 210t-86 209t-209 86t-210 -86t-87 -209z" />
<glyph unicode="Q" d="M184 119v991q0 49 35 84t84 35h993q49 0 83 -35t34 -84v-991q0 -49 -33.5 -84t-83.5 -35h-993q-49 0 -84 35t-35 84zM244 119q0 -59 59 -60h993q58 1 58 60v991q0 59 -58 59h-993q-59 0 -59 -59v-991zM418 416q0 18 37 39l75 43l-71 24q-39 8 -39 33q0 33 29 33 q8 0 10 -4l20 -6l119 -46l147 84l-147 82l-119 -47l-20 -4q-2 -2 -10 -2q-29 0 -29 31q0 18 18 26q4 2 21 9l71 22l-75 41q-37 20 -37 41q0 31 33 31h4q6 -4 22 -10l80 -45l-12 65q-4 23 -4 25q0 29 30 28q25 0 31 -18q0 -10 2 -23l21 -116l149 -86v170l-108 86 q-14 8 -15 24q0 31 31 31q12 0 16 -4l17 -15l59 -43v84q0 53 29 54q27 0 31 -27v-111l49 46q23 20 39 20q29 0 28 -31q0 -14 -26 -37l-90 -75v-170l147 86l20 135q4 29 31 29q33 0 33 -29v-4l-6 -25l-10 -67l71 43l21 10q8 6 18 6q29 0 29 -31v-6q-4 -14 -39 -35l-68 -39 l62 -18q43 -12 43 -39q0 -33 -33 -33q-2 0 -6 4q-10 2 -27 7l-106 38l-148 -84l148 -88l106 39q20 8 33 13q33 0 33 -31q0 -25 -43 -39l-62 -21l68 -36q23 -12 31 -19.5t8 -21.5q0 -31 -29 -31q-6 0 -18 6l-21 10l-71 41l10 -65l6 -25v-4q0 -33 -33 -33q-25 0 -31 33l-4 23 l-16 110l-147 86v-170l90 -74q27 -23 26 -38q0 -29 -28 -29q-20 0 -39 18l-49 47v-110q0 -27 -29 -27q-31 0 -31 53v84l-59 -43l-17 -16q-4 -6 -16 -6q-31 0 -31 33q0 18 15 24l26 23l82 65v168l-149 -86l-21 -117q0 -6 -2 -20q-6 -20 -31 -20q-31 0 -30 28q0 2 4 25l12 67 l-80 -45q-25 -10 -26 -10q-33 0 -33 29z" />
<glyph unicode="R" horiz-adv-x="1490" d="M111 119v991q0 49 33.5 84t82.5 35h994q49 0 83.5 -35t34.5 -84v-991q0 -49 -34.5 -84t-83.5 -35h-994q-49 0 -82.5 35t-33.5 84zM170 119q0 -59 57 -60h994q59 1 59 60v991q0 59 -59 59h-994q-57 0 -57 -59v-991zM334 610q0 178 78 264q18 20 32 21q10 0 11 -12 q0 -6 -4 -11q-78 -90 -78 -262q0 -176 80 -266q10 -14 6 -25q-2 -5 -6 -5q-7 0 -21 12q-4 6 -16 18q-82 90 -82 266zM475 610q0 143 74 211q18 16 31 17q12 0 12 -9q0 -6 -6 -10q-74 -72 -74 -209q0 -141 78 -213q8 -10 4 -20q-4 -8 -25 6q-8 4 -16 14q-78 72 -78 213z M668 381v471q0 47 41 47q8 0 16 -4l182 -135v-287l-180 -135q-8 -4 -16 -4q-43 0 -43 47zM940 494v243h133q41 0 41 -41v-161q0 -41 -41 -41h-133z" />
<glyph unicode="S" horiz-adv-x="1550" d="M162 119v991q0 49 34.5 84t84.5 35h991q49 0 84 -35t35 -84v-991q0 -49 -35 -84t-84 -35h-991q-49 0 -84 35t-35 84zM221 119q0 -59 60 -60h991q59 1 59 60v991q0 59 -59 59h-991q-59 0 -60 -59v-991zM291 1073q2 -12 16 -26l916 -895q11 -11 26 -11h2q22 3 22 23 q0 4 -1 10q-2 8 -6 10l-9 13l-909 884q-23 23 -33 23h-2q-23 -5 -23 -24q0 -3 1 -7zM338 524q0 -27 29 -26q6 0 28 6l123 28q18 4 19 23q0 29 -29 29h-4l-19 -4l-104 -25q-43 -10 -43 -31zM340 717q0 -25 37 -33l131 -29q29 0 29 29q0 20 -19 25l-20 2l-129 28 q-29 0 -29 -22zM422 352q0 -27 27 -26q12 0 30 14l90 72q23 18 23 30q0 27 -29 27q-10 0 -28 -14l-103 -80q-10 -8 -10 -23zM573 1008q0 -6 11 -29l55 -117q10 -16 27 -16q25 0 24 28q0 10 -2 13l-6 12l-51 107q-12 27 -31 26q-27 0 -27 -24zM575 236q0 -27 23 -27 q25 0 37 29l49 108q10 23 10 25q0 27 -28 26q-14 0 -29 -28l-51 -103q-10 -20 -11 -30zM575 623q0 -86 61.5 -148.5t147.5 -62.5q63 0 117 30l-45 37q-33 -16 -68 -16q-66 0 -112.5 47t-46.5 113q0 8 6 36l-45 37q-14 -39 -15 -73zM672 797l45 -37q33 18 74 18q61 0 108 -47 t47 -108q0 -14 -6 -43l43 -37q14 41 14 75q0 86 -61.5 149.5t-147.5 63.5q-55 0 -116 -34zM760 193q0 -25 26 -25q27 0 27 25v16l2 135q0 23 -27 23q-8 0 -10 -2q-18 -6 -18 -21v-151zM760 899q0 -25 26 -25q27 0 27 25v158q0 4 -6 14q-4 4 -12 6h-9q-27 0 -26 -24v-154z M885 362.5q2 -4.5 2 -6.5l8 -16l45 -96q2 -10 8 -23l25 -12q25 0 24 24q0 12 -8 29l-49 103q-14 31 -31 30q-26 0 -26 -24q0 -4 2 -8.5zM883 879q0 -29 24 -29h8q16 8 19 16l8 19l51 104q2 6 6 12v11q0 24 -26 24h-2q-16 0 -19 -12l-8 -16l-57 -117q-4 -4 -4 -12zM983 797 q0 -25 27 -25q14 0 18 4l14 10l84 68q6 6 16.5 15.5t10.5 19.5q0 26 -25 26h-2h-2q-6 0 -30 -18l-84 -66q-27 -20 -27 -34zM1032 559q0 -20 47 -33l107 -26h18q29 0 29 24q0 16 -19 25q-10 4 -20 6l-98 25q-8 0 -27 4h-8q-29 0 -29 -25zM1034 682q0 -25 29 -25h6l129 29 q35 8 35 31q0 26 -29 26h-2h-2l-18 -6l-107 -20q-41 -8 -41 -35z" />
<glyph unicode="T" horiz-adv-x="1566" d="M170 119v991q0 49 35 84t84 35h993q49 0 83 -35t34 -84v-991q0 -49 -34 -84t-83 -35h-993q-49 0 -84 35t-35 84zM229 119q0 -59 60 -60h993q59 1 59 60v991q0 59 -59 59h-993q-57 0 -60 -59q-2 -110 -2 -358t2 -633zM383 455v311q0 33 37 33q6 0 12 -4l270 -156 q16 -10 17 -29q0 -20 -17 -30l-268 -154q-6 -4 -14 -4q-37 0 -37 33zM743 455v311q0 33 37 33q6 0 13 -4l270 -156q14 -8 14 -29q0 -20 -14 -30l-268 -154q-6 -4 -15 -4q-37 0 -37 33zM1153 338v539q0 41 41 41h14q39 0 39 -41v-539q0 -39 -39 -39h-14q-41 0 -41 39z" />
<glyph unicode="U" horiz-adv-x="1521" d="M139 119v991q0 49 35 84t84 35h991q49 0 84 -35t35 -84v-991q0 -49 -35 -84t-84 -35h-991q-49 0 -84 35t-35 84zM199 119q0 -59 59 -60h991q60 1 60 60v991q0 59 -60 59h-991q-59 0 -59 -59v-991zM291 338v539q0 41 41 41h14q39 0 39 -41v-539q0 -39 -39 -39h-14 q-41 0 -41 39zM461 610q0 20 14 29l273 156q4 4 12 4q35 0 35 -33v-311q0 -33 -37 -33q-4 0 -13 4l-270 154q-14 10 -14 30zM821 610q0 20 15 29l270 156q6 4 14 4q35 0 35 -33v-311q0 -33 -37 -33q-8 0 -14 4l-268 154q-14 10 -15 30z" />
<glyph unicode="V" horiz-adv-x="1497" d="M115 115v993q0 49 34.5 83t83.5 34h994q49 0 82.5 -34t33.5 -83v-993q0 -49 -33.5 -84t-82.5 -35h-994q-49 0 -83.5 35t-34.5 84zM174 115q0 -59 59 -60h994q59 1 59 60v993q0 59 -59 59h-994q-59 0 -59 -59v-993zM506 705q10 8 45 43q102 100 102 188q0 10 -6 63 q0 18 -2 37q98 -66 137 -118q43 -63 54 -173q41 53 53 119q6 -6 12 -14q74 -82 74 -172q0 -94 -60 -164q-20 -23 -92 -78q-51 39 -116 39q-85 0 -142 -80q-108 81 -108 185q0 72 49 125zM518 588q0 -58 45 -107q-2 8 -2 21q0 31 27 57l39 39q39 39 39 98v17q73 -46 73 -125 q0 -8 -4 -35q41 27 56 65q26 -26 26 -66q0 -15 -14 -58q110 69 110 184q0 31 -8 61q-27 -45 -121 -88l-22 -10q2 6 4 25q10 59 10 77q0 96 -69 170q-12 -111 -127 -217q-61 -57 -62 -108zM569 305q0 59 41 100t101 41q59 0 101 -40.5t42 -100.5q0 -59 -42 -100t-101 -41 t-100.5 41t-41.5 100zM627 305q0 -35 24.5 -58.5t59.5 -23.5t59.5 23.5t24.5 58.5t-25 58.5t-59 23.5q-35 0 -59.5 -23.5t-24.5 -58.5z" />
<glyph unicode="W" horiz-adv-x="1566" d="M186 92v1045q0 39 27 65.5t66 26.5h1042q39 0 66.5 -26.5t27.5 -65.5v-1045q0 -39 -27.5 -65.5t-66.5 -26.5h-1042q-39 0 -66 26.5t-27 65.5zM471 336q0 -39 39 -39h80q39 0 39 39v174q0 39 -39 39h-80q-39 0 -39 -39v-174zM723 319q0 -26 38 -26h3h78h3q36 0 36 26v343 q0 27 -39 26h-78q-41 0 -41 -26v-343zM975 338q0 -41 39 -41h78q41 0 41 41v534q0 41 -41 41h-78q-39 0 -39 -41v-534z" />
<glyph unicode="X" horiz-adv-x="2048" />
<glyph unicode="Y" horiz-adv-x="1536" d="M170 92v1045q0 39 27.5 65.5t66.5 26.5h1043q39 0 65.5 -26.5t26.5 -65.5v-1045q0 -39 -26.5 -65.5t-65.5 -26.5h-1043q-39 0 -66.5 26.5t-27.5 65.5zM457 467q0 -20 39 -21h77q41 1 41 21v276q0 20 -41 21h-77q-39 0 -39 -21v-276zM709 391q0 -33 41 -33h77q39 0 39 33 v428q0 33 -39 33h-77q-41 0 -41 -33v-428zM961 338q0 -41 38 -41h78q41 0 41 41v534q0 41 -41 41h-78q-39 0 -38 -41v-534z" />
<glyph unicode="Z" horiz-adv-x="1507" d="M141 119v991q0 49 34 84t83 35h993q49 0 84 -35t35 -84v-991q0 -49 -35 -84t-84 -35h-993q-49 0 -83 35t-34 84zM199 119q0 -59 59 -60h993q60 1 60 60v991q0 59 -60 59h-993q-59 0 -59 -59v-991zM317 588q0 35 35 35q33 0 33 -35q0 -33 -33 -33q-35 0 -35 33zM334 588 q0 -16 18 -17q16 0 17 17q0 18 -17 18q-18 0 -18 -18zM391 483v25q0 55 25 72q18 14 78 14q72 0 71 -70v-2h-53v13q0 14 -33 14t-33 -37v-35q0 -37 33 -37t33 25v4h53v-16q0 -53 -49 -56l-43 -2h-14q-68 0 -68 88zM606 492q0 29 25 28h61v477q0 29 23.5 49.5t52.5 20.5 q61 0 72 -70v-188h51q27 0 27 -27q0 -20 -15 -24q-4 -4 -33 -4h-30v-385q53 -49 53 -107q0 -55 -37 -93t-92 -38t-93 38t-38 93q0 74 59 111v92h-61q-25 0 -25 27zM688 254h152v10q0 27 -39 64q-20 12 -21 28v109h-32v-84q0 -41 -17 -51q-43 -27 -43 -72v-4zM748 520h32v234 h-32v-234zM748 809h32v190q-2 12 -14 13q-10 0 -16 -15q0 -4 -2 -6v-182zM897 879q0 30 31 30h2q35 0 35 -30q0 -35 -35 -35q-33 0 -33 35zM913 879q0 -18 17 -19q18 0 18 19q0 16 -18 16q-17 0 -17 -16zM967 770v23q0 57 24 75q18 14 80 15q74 0 74 -72v-2h-53v4l-2 10 q0 12 -31 13q-33 0 -33 -39v-31q0 -39 33 -39q31 0 31 27v4h55v-15q0 -59 -49 -59h-58q-72 0 -71 86z" />
<glyph unicode="a" d="M170 119v991q0 49 35 84t84 35h993q49 0 83 -35t34 -84v-991q0 -49 -34 -84t-83 -35h-993q-49 0 -84 35t-35 84zM229 119q0 -59 60 -60h993q59 0 59 60v991q0 59 -59 59h-993q-59 0 -60 -59v-991zM504 393v463q0 41 41 41h463q41 0 41 -41v-463q0 -41 -41 -41h-463 q-41 0 -41 41z" />
<glyph unicode="b" horiz-adv-x="1550" d="M170 119v991q0 49 34 84t83 35h993q49 0 84 -35t35 -84v-991q0 -49 -35 -84t-84 -35h-993q-49 0 -83 35t-34 84zM227 119q0 -59 60 -60h993q59 1 59 60v991q0 59 -59 59h-993q-59 0 -60 -59v-991zM483 627q0 123 86 210t209 87t210 -87t87 -210t-87 -210t-210 -87 t-209 87t-86 210z" />
<glyph unicode="c" horiz-adv-x="1566" d="M156 119v991q0 49 33.5 84t82.5 35h994q49 0 83.5 -35t34.5 -84v-991q0 -49 -34.5 -84t-83.5 -35h-994q-49 0 -82.5 35t-33.5 84zM215 119q0 -59 57 -60h994q59 1 59 60v991q0 59 -59 59h-994q-57 0 -57 -59v-991zM563 346v537q0 41 41 41h78q39 0 39 -41v-537 q0 -41 -39 -41h-78q-41 0 -41 41zM817 346v537q0 41 41 41h78q39 0 39 -41v-537q0 -41 -39 -41h-78q-41 0 -41 41z" />
<glyph unicode="d" horiz-adv-x="1325" d="M-10 104v1020q0 43 36.5 74t79.5 31q23 0 41 -10l885 -512q47 -27 47 -95t-47 -94l-878 -506q-20 -12 -45 -12q-43 0 -81 30.5t-38 73.5z" />
<glyph unicode="e" horiz-adv-x="2824" d="M291 104v1020q0 43 37 74t80 31q23 0 41 -10l884 -512q47 -27 47 -95t-47 -94l-878 -506q-20 -12 -45 -12q-43 0 -81 30.5t-38 73.5zM1466 104v1020q0 43 36 74t79 31q25 0 43 -10l885 -512q47 -27 47 -95q0 -66 -49 -94l-877 -506q-20 -12 -45 -12q-43 0 -81 30.5 t-38 73.5z" />
<glyph unicode="f" horiz-adv-x="2674" d="M186 612q0 68 47 95l885 512q18 10 43 10q43 0 79 -31t36 -74v-1020q0 -43 -38 -73.5t-81 -30.5q-25 0 -45 12l-876 506q-49 29 -50 94zM1362 612q0 68 47 95l885 512q18 10 41 10q43 0 79.5 -31t36.5 -74v-1020q0 -43 -37.5 -73.5t-80.5 -30.5q-25 0 -45 12l-879 506 q-47 27 -47 94z" />
<glyph unicode="g" horiz-adv-x="2150" d="M244 309v621q0 27 22.5 45t48.5 18q14 0 25 -6l539 -311q30 -17 30 -56q0 -41 -30 -59l-535 -309q-10 -6 -27 -6q-27 0 -50 18.5t-23 44.5zM961 309v621q0 27 21.5 45t47.5 18q16 0 27 -6l538 -311q29 -16 29 -58q0 -41 -29 -57l-534 -309q-10 -6 -29 -6q-27 0 -49 19.5 t-22 43.5zM1776 80v1069q0 35 22.5 57.5t56.5 22.5h29q33 0 55.5 -23.5t22.5 -56.5v-1069q0 -33 -22.5 -56.5t-55.5 -23.5h-29q-35 0 -57 22.5t-22 57.5z" />
<glyph unicode="h" horiz-adv-x="2091" d="M199 80v1069q0 33 23.5 56.5t56.5 23.5h28q33 0 56.5 -23.5t23.5 -56.5v-1069q0 -33 -23.5 -56.5t-56.5 -23.5h-28q-33 0 -56.5 23.5t-23.5 56.5zM567 676l539 311q10 6 24 6q27 0 49.5 -18.5t22.5 -44.5v-621q0 -25 -23.5 -44t-50.5 -19q-16 0 -26 6l-535 309 q-30 17 -30 55q0 41 30 60zM1253 618q0 41 29 58l539 311q10 6 26 6q27 0 48.5 -18.5t21.5 -44.5v-621q0 -25 -22.5 -44t-49.5 -19q-18 0 -28 6l-535 309q-29 16 -29 57z" />
<glyph unicode="i" d="M209 98v1045q0 39 26.5 65.5t65.5 26.5h1045q39 0 65.5 -26.5t26.5 -65.5v-1045q0 -39 -27 -65.5t-65 -26.5h-1045q-37 0 -64.5 27.5t-27.5 64.5z" />
<glyph unicode="j" d="M156 614q0 256 179 435.5t435 179.5t435 -179.5t179 -435.5t-179 -435t-435 -179t-435 179t-179 435z" />
<glyph unicode="k" horiz-adv-x="1093" d="M137 80v1069q0 33 23.5 56.5t56.5 23.5h156q33 0 56.5 -23.5t23.5 -56.5v-1069q0 -33 -23.5 -56.5t-56.5 -23.5h-156q-33 0 -56.5 23.5t-23.5 56.5zM643 80v1069q0 33 23.5 56.5t56.5 23.5h156q33 0 56 -23.5t23 -56.5v-1069q0 -33 -23.5 -56.5t-55.5 -23.5h-156 q-33 0 -56.5 23.5t-23.5 56.5z" />
<glyph unicode="l" horiz-adv-x="1759" d="M215 80v1069q0 33 23.5 56.5t56.5 23.5h156q33 0 56 -23.5t23 -56.5v-1069q0 -33 -23.5 -56.5t-55.5 -23.5h-156q-33 0 -56.5 23.5t-23.5 56.5zM721 80v1069q0 33 23.5 56.5t56.5 23.5h155q33 0 56.5 -23.5t23.5 -56.5v-1069q0 -33 -23.5 -56.5t-56.5 -23.5h-155 q-33 0 -56.5 23.5t-23.5 56.5zM1221 80v1069q0 33 23.5 56.5t55.5 23.5h156q33 0 56.5 -23.5t23.5 -56.5v-1069q0 -33 -23.5 -56.5t-56.5 -23.5h-156q-33 0 -56 23.5t-23 56.5z" />
<glyph unicode="m" horiz-adv-x="1656" d="M186 340v549q0 41 80 41h154q80 0 80 -41v-549q0 -41 -80 -41h-154q-80 0 -80 41zM690 186v856q0 63 80 64h156q80 0 80 -64v-856q0 -63 -80 -63h-156q-80 0 -80 63zM1190 80v1069q0 33 23.5 56.5t56.5 23.5h155q33 0 56.5 -23.5t23.5 -56.5v-1069q0 -33 -23.5 -56.5 t-56.5 -23.5h-155q-33 0 -56.5 23.5t-23.5 56.5z" />
<glyph unicode="n" horiz-adv-x="1640" d="M168 86v342q0 35 22.5 57.5t57.5 22.5h153q33 0 56.5 -23.5t23.5 -56.5v-342q0 -33 -23.5 -56.5t-56.5 -23.5h-153q-35 0 -57.5 22.5t-22.5 57.5zM670 51v680q0 51 78 51h153q80 0 80 -51v-680q0 -51 -80 -51h-153q-78 0 -78 51zM1165 86v1063q0 33 23.5 56.5t56.5 23.5 h154q33 0 56.5 -23.5t23.5 -56.5v-1063q0 -33 -23.5 -55.5t-56.5 -22.5h-154q-33 0 -56.5 22.5t-23.5 55.5z" />
<glyph unicode="o" horiz-adv-x="2060" d="M217 621q0 375 164 553q41 45 68 45q25 0 24 -25q0 -14 -10 -23q-164 -190 -164 -550q0 -372 170 -560q10 -18 10 -41q0 -20 -14 -20q-25 0 -78 59q-170 190 -170 562zM514 621q0 299 156 442q41 37 65 37q23 0 23 -21q0 -10 -10 -18q-158 -152 -158 -440 q0 -297 164 -447q10 -14 10 -33q0 -16 -14 -16q-25 0 -74 47q-162 152 -162 449zM918 141v985q0 39 24.5 71t61.5 32q18 0 32 -10l383 -283l2 -604l-379 -281q-16 -12 -34 -12q-39 0 -64.5 31.5t-25.5 70.5zM1491 375v514h276q37 0 61.5 -25.5t24.5 -62.5v-340 q0 -35 -25.5 -60.5t-60.5 -25.5h-276z" />
<glyph unicode="p" horiz-adv-x="1462" d="M139 754q0 47 47 47q45 0 45 -47t-45 -47q-47 0 -47 47zM162 754q0 -23 24 -23q23 0 23 23q0 25 -23 24q-24 1 -24 -24zM240 608v33q0 78 32 100q27 20 109 21q100 0 100 -98v-2h-73v18q0 18 -46 18q-31 0 -39 -10t-8 -41v-47q0 -33 7.5 -42t39.5 -9q45 0 46 35v6h73v-23 q0 -76 -69 -78l-60 -2h-18q-94 0 -94 121zM537 618q0 12 12 26.5t22 14.5h84v660q0 39 33 66.5t72 27.5q86 0 98 -94v-262h72q12 0 20 -4q16 -10 17 -33q0 -27 -19 -33q-6 -4 -45 -4h-45v-532q76 -68 76 -148q0 -76 -52.5 -128t-127.5 -52q-76 0 -128.5 52t-52.5 128 q0 102 82 152v127h-84q-6 0 -16 8q-18 10 -18 28zM651 291h207v14q0 41 -24 66q-18 12 -37 26.5t-19 34.5v150h-45v-115q0 -37 -4 -45q-4 -16 -20 -27q-57 -35 -58 -98v-6zM733 659h45v324h-45v-324zM733 1059h45v262q-4 16 -20 16t-23 -18q0 -6 -2 -10v-250zM940 1153 q0 45 45 45q47 0 47 -45q0 -47 -47 -47q-45 0 -45 47zM961 1153q0 -25 24 -25q25 0 25 25t-27 25q-22 0 -22 -25zM1036 1006v30q0 78 33 103q27 20 111 20q102 0 102 -98v-2h-76v4l-2 14q0 18 -41 19q-31 0 -39 -10.5t-8 -43.5v-43q0 -33 7 -44t38 -11q27 0 35 6t8 33v4h76 v-20q0 -78 -68 -80l-77 -2h-3q-95 0 -96 121z" />
<glyph unicode="q" horiz-adv-x="1077" d="M199 756q0 82 63 159q12 12 57 58q133 131 134 246v-2q-1 0 -7 83q0 16 -4 48q129 -84 179 -154q57 -82 69 -223q57 66 70 153q6 -4 16 -18q53 -61 74 -100q22 -49 22 -117v-6q0 -127 -77 -215q-31 -35 -43 -47q-23 -18 -76 -54q-68 51 -154 51q-106 0 -182 -104 q-141 106 -141 242zM276 764q1 -73 60 -139q-2 10 -2 26q0 39 35 76l49 51q51 53 51 127v23q96 -61 96 -166q0 -8 -4 -43q53 35 72 86q33 -35 33 -92q0 -16 -17 -72q143 90 144 244q0 37 -13 78q-25 -47 -65 -74q-23 -14 -90 -41l-29 -14q0 8 4 30q12 80 12 103 q0 125 -90 221q-14 -145 -164 -283q-82 -76 -82 -141zM344 395q0 78 53.5 131.5t130.5 53.5q80 0 133.5 -52.5t53.5 -132.5t-53.5 -132t-133.5 -52q-76 0 -130 54t-54 130zM420 395q0 -43 32.5 -74.5t75.5 -31.5q45 0 77 30.5t32 75.5t-32 76t-77 31t-76.5 -31t-31.5 -76z " />
<glyph unicode="r" horiz-adv-x="1417" d="M176 512q0 25 45 49l94 53l-88 31q-10 4 -26 8q-23 10 -23 33q0 41 37 41q8 0 12 -4l25 -8l149 -56l187 105l-187 102l-149 -57l-25 -6q-4 -2 -12 -2q-37 0 -37 39q0 25 23 32q6 2 26 11l88 28l-94 52q-45 25 -45 51q0 39 41 39h4q4 -2 8 -2q6 -6 21 -13l100 -55l-16 82 q-6 27 -4 31q0 37 39 37q31 0 37 -25q0 -6 4 -29l26 -145l187 -109v215l-103 82l-35 25q-16 12 -16 31q0 39 39 39q14 0 20 -7l21 -16l74 -55v106q0 68 36 68q35 0 37 -35l2 -37v-100l62 55q29 27 49 27q35 0 35 -39q0 -20 -33 -47l-113 -95v-213l185 107l24 170q6 37 41 37 q39 0 39 -37v-4l-6 -31l-14 -86l90 53l26 15q8 6 23 6q37 0 37 -37v-8q-6 -18 -49 -43l-84 -49l75 -25q55 -18 56 -49q0 -39 -41 -39q-4 0 -8 4q-16 2 -33 8l-135 49l-185 -106l185 -111l135 49q39 14 41 15q41 0 41 -39q0 -29 -56 -47l-75 -27l84 -47q33 -18 34 -22 q14 -10 15 -29q0 -39 -37 -39q-10 0 -23 8l-26 14l-90 52l14 -84l6 -31v-4q0 -41 -39 -41q-35 0 -41 41l-4 29l-20 139l-185 106v-213l113 -92q33 -27 33 -49q0 -37 -35 -37q-23 0 -49 25l-62 57v-100l-2 -37q-2 -35 -34 -35q-39 0 -39 68v106l-74 -55l-21 -21q-6 -6 -20 -6 q-39 0 -39 39q0 25 16 33l35 27l103 81v213l-187 -108l-26 -148q-2 -6 -4 -24q-8 -27 -37 -27q-39 0 -39 37q-2 4 4 31l16 84l-100 -56q-27 -14 -33 -14q-41 0 -41 37z" />
<glyph unicode="s" horiz-adv-x="1566" d="M96 1249q4 -16 25 -32l1261 -998q18 -14 37 -8q23 6 23 28q0 7 -2 15q-4 10 -8 12l-13 13l-1251 987q-33 27 -47 22q-27 -8 -27 -28q0 -5 2 -11zM158 627q0 -37 37 -37q10 2 38 8l164 39q23 6 23 31q0 37 -37 37h-6q-6 0 -25 -5l-139 -32q-55 -12 -55 -41zM160 881 q0 -33 49 -43l143 -33l31 -4q39 0 39 37q0 29 -27 32l-26 4l-172 37q-37 0 -37 -30zM268 397q0 -37 35 -37q18 0 43 21l119 96q31 25 31 41q0 35 -39 35q-12 0 -39 -21l-117 -90l-18 -16q-14 -12 -15 -29zM469 1270q0 -8 14 -39l74 -156q14 -20 35 -20q35 0 35 37 q0 12 -4 16l-9 16l-67 142q-18 37 -41 37q-37 0 -37 -33zM473 242q0 -35 31 -35t47 37l67 145q12 27 13 33q0 12 -13.5 23.5t-25.5 11.5q-18 0 -37 -37l-70 -137q-12 -33 -12 -41zM473 758q0 -117 81 -200t198 -83q84 0 153 43l-59 47q-43 -20 -90 -20q-86 0 -149.5 62.5 t-63.5 148.5q0 12 8 49l-59 49q-18 -51 -19 -96zM600 987l59 -47q45 23 99 23q82 0 144.5 -61.5t62.5 -143.5q0 -20 -7 -60l56 -47q20 53 20 101q0 115 -82 198.5t-196 83.5q-72 0 -156 -47zM719 184q0 -32 33 -32h2q35 0 34 32v23l3 180q0 8 -12.5 18.5t-22.5 10.5t-15 -2 q-23 -8 -22 -29v-201zM719 1124q0 -33 35 -32q35 0 34 32v209q0 23 -24 27q-4 2 -10 2q-35 0 -35 -35v-203zM881 1096q0 -37 32 -37h13q20 10 24 20l11 25l67 139l8 17v14q0 33 -37 33q-23 0 -26 -17l-10 -20l-68 -137l-8 -21q-6 -4 -6 -16zM885 411q2 -5 2 -8l10 -22 l59 -129q4 -8 13 -29q33 -16 32 -16q33 0 33 33q0 16 -10 36l-66 138q-20 41 -43 41q-32 0 -32 -33q0 -6 2 -11zM1016 989q0 -35 35 -35q18 0 24 7l19 14l112 90q6 6 25 20q10 8 10 25q0 35 -37 35h-2q-10 0 -41 -25l-110 -86q-35 -27 -35 -45zM1081 672q0 -29 62 -43 l141 -35q8 -2 25 -2q39 0 39 33q0 8 -5.5 19t-46.5 22l-133 32q-8 2 -33 7h-12q-37 0 -37 -33zM1083 836q0 -33 37 -33h8l25 6l147 33q47 10 48 39q0 37 -41 37h-2l-25 -9l-141 -28q-55 -10 -56 -45z" />
<glyph unicode="t" d="M184 92v1045q0 39 28 65.5t67 26.5h1042q39 0 65.5 -26.5t26.5 -65.5v-1045q0 -39 -26.5 -65.5t-65.5 -26.5h-1042q-39 0 -67 26.5t-28 65.5zM358 627q0 -25 17 -35l315 -182q6 -4 17 -4h2q41 0 41 36v369q0 37 -41 37q-10 0 -17 -4l-317 -185q-16 -10 -17 -32zM780 627 q0 -25 17 -35l317 -182q6 -4 16 -4h2q42 0 42 36v369q0 37 -44 37q-8 0 -14 -4l-319 -185q-16 -10 -17 -32z" />
<glyph unicode="u" horiz-adv-x="1685" d="M215 92v1045q0 39 27.5 65.5t66.5 26.5h1043q39 0 65.5 -26.5t26.5 -65.5v-1045q0 -39 -26.5 -65.5t-65.5 -26.5h-1043q-39 0 -66.5 26.5t-27.5 65.5zM598 389q0 -20 17.5 -35.5t37.5 -15.5q12 0 23 6l416 240q23 12 22 45q1 33 -22 45l-420 241q-8 6 -21 7 q-53 0 -53 -52v-481z" />
<glyph unicode="v" horiz-adv-x="1626" d="M184 92v1045q0 39 26.5 65.5t65.5 26.5h1045q37 0 64.5 -27.5t27.5 -64.5v-1045q0 -37 -27.5 -64.5t-64.5 -27.5h-1045q-39 0 -65.5 26.5t-26.5 65.5zM526 383q0 -41 41 -41h463q41 0 41 41v463q0 41 -41 41h-463q-41 0 -41 -41v-463z" />
<glyph unicode="w" horiz-adv-x="1685" d="M201 92v1045q0 39 26.5 65.5t65.5 26.5h1042q39 0 67 -26.5t28 -65.5v-1045q0 -39 -28 -65.5t-67 -26.5h-1042q-39 0 -65.5 26.5t-26.5 65.5zM440 442q0 -36 41 -36h2q10 0 17 4l317 182q16 10 17 35q-1 22 -17 32l-319 185q-6 4 -15 4q-43 0 -43 -37v-369zM864 442 q0 -36 41 -36h2q10 0 17 4l315 182q16 10 16 35q0 22 -16 32l-317 185q-6 4 -17 4q-41 0 -41 -37v-369z" />
<glyph unicode="x" horiz-adv-x="1566" d="M170 92v1045q0 37 27.5 64.5t64.5 27.5h1045q37 0 64.5 -27.5t27.5 -64.5v-1045q0 -37 -28 -64.5t-64 -27.5h-1045q-37 0 -64.5 27.5t-27.5 64.5zM580 338q0 -41 38 -41h78q41 0 41 41v534q0 41 -41 41h-78q-39 0 -38 -41v-534zM831 338q0 -41 41 -41h78q39 0 39 41v534 q0 41 -39 41h-78q-41 0 -41 -41v-534z" />
<glyph unicode="y" horiz-adv-x="1536" d="M139 92v1045q0 37 28 64.5t64 27.5h1045q37 0 64.5 -27.5t27.5 -64.5v-1045q0 -37 -27.5 -64.5t-64.5 -27.5h-1045q-37 0 -64.5 27.5t-27.5 64.5zM356 612q0 -176 80 -266q6 -8 19 -16q12 -11 18 -11q4 0 6 5q4 10 -4 24q-80 88 -80 264q0 172 78 262q4 4 4 13 q0 10 -10 10q-14 0 -33 -20q-78 -84 -78 -265zM496 614q0 -141 77 -213q12 -10 19 -14q18 -14 22 -6q4 10 -4 20q-78 72 -78 213q0 137 76 209q4 2 4 8q0 10 -10 11q-10 0 -31 -19q-76 -70 -75 -209zM688 385q0 -47 43 -47q8 0 17 4l180 133v289q-49 35 -183 133q-6 6 -16 6 q-41 0 -41 -49v-469zM963 498h131q41 0 41 41v161q0 41 -41 41h-131v-243z" />
<glyph unicode="z" horiz-adv-x="1566" d="M172 92v1045q0 39 26.5 65.5t65.5 26.5h1043q39 0 66.5 -26.5t27.5 -65.5v-1045q0 -39 -27.5 -65.5t-66.5 -26.5h-1043q-39 0 -65.5 26.5t-26.5 65.5zM356 330q0 -41 41 -41h15q39 0 39 41v536q0 39 -39 39h-15q-41 0 -41 -39v-536zM526 600q0 -20 15 -31l268 -153 q6 -4 14 -4h2q35 0 35 32v312q0 32 -33 32h-2q-8 0 -14 -4l-270 -155q-14 -8 -15 -29zM887 600q0 -20 14 -31l268 -153q6 -4 15 -4h2q33 0 33 32v312q0 32 -33 32h-2q-6 0 -13 -4l-270 -155q-14 -8 -14 -29z" />
<glyph unicode="{" horiz-adv-x="1626" d="M201 92v1045q0 39 26.5 65.5t65.5 26.5h1044q37 0 65 -27.5t28 -64.5v-1045q0 -37 -28 -64.5t-65 -27.5h-1044q-39 0 -65.5 26.5t-26.5 65.5zM381 444q0 -33 37 -32q8 0 14 4l268 153q14 10 15 31q-1 21 -15 29l-270 155q-6 4 -14 4q-35 0 -35 -32v-312zM741 444 q0 -33 35 -32q8 0 15 4l268 153q14 10 14 31t-14 29l-271 155q-6 4 -12 4q-35 0 -35 -32v-312zM1149 330q0 -41 41 -41h14q39 0 39 41v536q0 39 -39 39h-14q-41 0 -41 -39v-536z" />
<glyph unicode="}" horiz-adv-x="1656" d="M201 92v1045q0 39 26.5 65.5t65.5 26.5h1042q39 0 67 -26.5t28 -65.5v-1045q0 -39 -28 -65.5t-67 -26.5h-1042q-39 0 -65.5 26.5t-26.5 65.5zM485 338q0 -41 39 -41h78q41 0 41 41v534q0 41 -41 41h-78q-39 0 -39 -41v-534zM739 338q0 -41 39 -41h78q41 0 41 41v534 q0 41 -41 41h-78q-39 0 -39 -41v-534zM989 338q0 -41 41 -41h76q41 0 41 41v534q0 41 -41 41h-76q-41 0 -41 -41v-534z" />
<glyph unicode="~" d="M184 119v991q0 49 35 84t84 35h993q49 0 83 -35t34 -84v-991q0 -49 -33.5 -84t-83.5 -35h-993q-49 0 -84 35t-35 84zM244 119q0 -59 59 -60h993q58 1 58 60v991q0 59 -58 59h-993q-59 0 -59 -59v-991zM475 322v172q0 41 39 41h80q39 0 39 -41v-172q0 -41 -39 -41h-80 q-39 0 -39 41zM729 303v344q0 27 39 27h78q41 0 41 -27v-344q0 -25 -41 -24h-78q-39 0 -39 24zM979 322v538q0 39 41 39h78q39 0 39 -39v-538q0 -39 -39 -39h-78q-41 0 -41 39z" />
<glyph unicode="&#xa4;" />
<glyph unicode="&#xa9;" horiz-adv-x="1566" />
<glyph unicode="&#xaa;" horiz-adv-x="1521" />
<glyph unicode="&#xab;" horiz-adv-x="1497" />
<glyph unicode="&#xae;" />
<glyph unicode="&#xba;" horiz-adv-x="1550" />
<glyph unicode="&#xcc;" horiz-adv-x="1626" />
<glyph unicode="&#xcf;" />
<glyph unicode="&#xd3;" horiz-adv-x="1566" />
<glyph unicode="&#xd8;" horiz-adv-x="1536" />
<glyph unicode="&#xdb;" horiz-adv-x="1626" />
<glyph unicode="&#xf8;" horiz-adv-x="1490" />
<glyph unicode="&#x2c6;" horiz-adv-x="1566" />
<glyph unicode="&#x2000;" horiz-adv-x="722" />
<glyph unicode="&#x2001;" horiz-adv-x="1444" />
<glyph unicode="&#x2002;" horiz-adv-x="722" />
<glyph unicode="&#x2003;" horiz-adv-x="1444" />
<glyph unicode="&#x2004;" horiz-adv-x="481" />
<glyph unicode="&#x2005;" horiz-adv-x="361" />
<glyph unicode="&#x2006;" horiz-adv-x="240" />
<glyph unicode="&#x2007;" horiz-adv-x="240" />
<glyph unicode="&#x2008;" horiz-adv-x="180" />
<glyph unicode="&#x2009;" horiz-adv-x="288" />
<glyph unicode="&#x200a;" horiz-adv-x="80" />
<glyph unicode="&#x201a;" horiz-adv-x="1550" />
<glyph unicode="&#x202f;" horiz-adv-x="288" />
<glyph unicode="&#x203a;" horiz-adv-x="1566" />
<glyph unicode="&#x205f;" horiz-adv-x="361" />
<glyph unicode="&#x2122;" horiz-adv-x="1685" />
<glyph unicode="&#xe000;" horiz-adv-x="1228" d="M0 0v1229h1229v-1229h-1229z" />
</font>
</defs>
</svg>
